<svg width="103" height="85" viewBox="0 0 103 85" fill="none" xmlns="http://www.w3.org/2000/svg">
<g filter="url(#filter0_d_2_2229)">
<path d="M92.0328 26.1228L80.0731 62.2432L79.9756 62.5497C79.9756 62.675 77.4871 72.3597 71.0012 72.3597C64.5154 72.3597 62.0268 62.675 62.0083 62.5729L54.0321 38.4307L46.1951 14.7528C45.703 12.8585 41.6685 -1 29.4813 -1C17.2942 -1 13.2643 12.8585 12.7675 14.7528L0 53.2874H8.44512L20.4326 17.1623L20.5255 16.8513C20.5487 16.7352 23.014 7.05978 29.4999 7.05978C35.9858 7.05978 38.4557 16.7352 38.4929 16.8095L46.4691 40.9517L54.3106 64.6296C54.8028 66.5331 58.8373 80.3917 71.0245 80.3917C83.2116 80.3917 87.2508 66.5331 87.7383 64.6296L100.478 26.1275L92.0328 26.1228Z" fill="url(#paint0_linear_2_2229)"/>
</g>
<defs>
<filter id="filter0_d_2_2229" x="-1.85709" y="-1" width="104.192" height="85.1058" filterUnits="userSpaceOnUse" color-interpolation-filters="sRGB">
<feFlood flood-opacity="0" result="BackgroundImageFix"/>
<feColorMatrix in="SourceAlpha" type="matrix" values="0 0 0 0 0 0 0 0 0 0 0 0 0 0 0 0 0 0 127 0" result="hardAlpha"/>
<feOffset dy="1.85709"/>
<feGaussianBlur stdDeviation="0.928546"/>
<feComposite in2="hardAlpha" operator="out"/>
<feColorMatrix type="matrix" values="0 0 0 0 0 0 0 0 0 0 0 0 0 0 0 0 0 0 0.25 0"/>
<feBlend mode="normal" in2="BackgroundImageFix" result="effect1_dropShadow_2_2229"/>
<feBlend mode="normal" in="SourceGraphic" in2="effect1_dropShadow_2_2229" result="shape"/>
</filter>
<linearGradient id="paint0_linear_2_2229" x1="-0.0417846" y1="39.6889" x2="100.473" y2="39.6889" gradientUnits="userSpaceOnUse">
<stop stop-color="#7C2A91"/>
<stop offset="1" stop-color="#7CCCC9"/>
</linearGradient>
</defs>
</svg>
